<svg width="28" height="22" viewBox="0 0 28 22" fill="none" xmlns="http://www.w3.org/2000/svg">
<path d="M28 3.2794C26.9587 3.70346 25.8492 3.98453 24.6925 4.12101C25.8825 3.46137 26.7908 2.42479 27.2178 1.17537C26.1083 1.78952 24.8832 2.22332 23.5777 2.46541C22.5243 1.42395 21.0227 0.778931 19.3848 0.778931C16.2067 0.778931 13.6482 3.17379 13.6482 6.10969C13.6482 6.53212 13.6868 6.93831 13.7812 7.32499C9.009 7.1089 4.78625 4.98537 1.9495 1.75052C1.45425 2.54827 1.16375 3.46137 1.16375 4.44434C1.16375 6.29004 2.1875 7.92615 3.7135 8.87337C2.79125 8.85712 1.8865 8.60853 1.12 8.21697C1.12 8.23322 1.12 8.25434 1.12 8.27546C1.12 10.8653 3.10975 13.0164 5.719 13.512C5.25175 13.6306 4.7425 13.6875 4.214 13.6875C3.8465 13.6875 3.4755 13.668 3.12725 13.5965C3.871 15.707 5.9815 17.2586 8.491 17.309C6.538 18.7274 4.05825 19.582 1.37375 19.582C0.903 19.582 0.4515 19.5625 0 19.5089C2.54275 21.0313 5.55625 21.9005 8.806 21.9005C19.369 21.9005 25.144 13.7768 25.144 6.73521C25.144 6.49963 25.1353 6.27216 25.123 6.04633C26.2622 5.2957 27.2195 4.35822 28 3.2794Z" fill="white"/>
</svg>
