<svg id="pattern" xmlns="http://www.w3.org/2000/svg" viewBox="0 0 500 500">
  <defs>
    <style>
      .cls-1 {
        opacity: 0.1;
        fill: #ef5aa1;
      }

      .cls-2 {
        opacity: 0.1;
        fill: #fdeb01;
      }
    </style>
  </defs>
  <path class="cls-1" d="M473.86,43.2a6.55,6.55,0,1,0-1.08,13.06L500,58.53V45.38Z" transform="translate(0)"/>
  <path class="cls-1" d="M479.35,263.5a6.54,6.54,0,0,1-4.6-1.89l-38.22-37.67a6.55,6.55,0,0,1,9.2-9.33L484,252.28a6.55,6.55,0,0,1-4.6,11.22Z" transform="translate(0)"/>
  <path class="cls-2" d="M491,489.37a6.55,6.55,0,0,0-9.08,1.84L476.06,500h15.72l1-1.55A6.55,6.55,0,0,0,491,489.37Z" transform="translate(0)"/>
  <path class="cls-1" d="M380.94,83.2a6.48,6.48,0,0,1-4.56-.43L309.09,50.28a6.55,6.55,0,0,1,5.7-11.8L382.07,71a6.56,6.56,0,0,1-1.13,12.23Z" transform="translate(0)"/>
  <path class="cls-2" d="M165.82,45.5a6.53,6.53,0,0,1-5.14,4.06l-24.29,3.53a6.55,6.55,0,1,1-1.88-13l24.28-3.54a6.56,6.56,0,0,1,7.43,5.54A6.48,6.48,0,0,1,165.82,45.5Z" transform="translate(0)"/>
  <path class="cls-1" d="M43.13,106.54a6.63,6.63,0,0,1-2.65-1.6,6.55,6.55,0,0,1,0-9.27l48.5-48.89A6.55,6.55,0,1,1,98.24,56L49.74,104.9A6.54,6.54,0,0,1,43.13,106.54Z" transform="translate(0)"/>
  <path class="cls-1" d="M206.18,72.56a6.56,6.56,0,0,1,.6-10.86l47.65-28.34a6.56,6.56,0,1,1,6.7,11.27L213.48,73A6.53,6.53,0,0,1,206.18,72.56Z" transform="translate(0)"/>
  <path class="cls-2" d="M423.41,66.1a6.54,6.54,0,0,1-5.15-2.5l-12-15.29a6.56,6.56,0,0,1,10.31-8.1l12,15.29a6.55,6.55,0,0,1-5.15,10.6Z" transform="translate(0)"/>
  <path class="cls-2" d="M228.09,241.31a6.57,6.57,0,0,1-5.16-2.5l-12-15.29a6.56,6.56,0,0,1,10.31-8.1l12,15.29a6.56,6.56,0,0,1-5.15,10.6Z" transform="translate(0)"/>
  <path class="cls-1" d="M496.4,377.11A6.55,6.55,0,0,0,484.23,382L500,421.48V386.14Z" transform="translate(0)"/>
  <path class="cls-2" d="M479.11,214.23a6.56,6.56,0,0,0,3.41,12.66L500,222.18V208.61Z" transform="translate(0)"/>
  <path class="cls-1" d="M247,139.14a6.55,6.55,0,0,1-1.42-12.95l67.2-15a6.55,6.55,0,0,1,2.86,12.79l-67.2,15A6.42,6.42,0,0,1,247,139.14Z" transform="translate(0)"/>
  <path class="cls-1" d="M42.28,236.63A6.56,6.56,0,0,1,35,228.11L56.56,162.7A6.55,6.55,0,1,1,69,166.8L47.47,232.2A6.58,6.58,0,0,1,42.28,236.63Z" transform="translate(0)"/>
  <path class="cls-1" d="M112.21,196a6.52,6.52,0,0,1,4.14-2l74.45-6.31a6.55,6.55,0,1,1,1.11,13l-74.45,6.32a6.55,6.55,0,0,1-5.25-11.1Z" transform="translate(0)"/>
  <path class="cls-1" d="M449.56,299.35a6.55,6.55,0,1,0,1.64,13l48.8-6.16V293Z" transform="translate(0)"/>
  <path class="cls-1" d="M207.15,160.91a6.35,6.35,0,0,1,1.21-2.33,6.56,6.56,0,0,1,9.22-1l41,33.3a6.55,6.55,0,1,1-8.26,10.18l-41-33.3A6.56,6.56,0,0,1,207.15,160.91Z" transform="translate(0)"/>
  <path class="cls-1" d="M115.52,248.07a6.66,6.66,0,0,1,2,1.64,6.56,6.56,0,0,1-.82,9.23L76.23,292.85a6.55,6.55,0,0,1-8.41-10.05l40.52-33.91A6.56,6.56,0,0,1,115.52,248.07Z" transform="translate(0)"/>
  <path class="cls-1" d="M394.89,406.82a6.54,6.54,0,0,1,.85-10.9L442,370.31a6.55,6.55,0,0,1,6.36,11.46l-46.22,25.61A6.56,6.56,0,0,1,394.89,406.82Z" transform="translate(0)"/>
  <path class="cls-1" d="M398.8,496.8a6.28,6.28,0,0,0-.55,2.56,4.49,4.49,0,0,0,0,.64h24.14l-15-6.57A6.54,6.54,0,0,0,398.8,496.8Z" transform="translate(0)"/>
  <path class="cls-1" d="M332.32,462.55a6.56,6.56,0,0,0-8.6,3.45l-14.51,34h14.25l12.31-28.85A6.55,6.55,0,0,0,332.32,462.55Z" transform="translate(0)"/>
  <path class="cls-1" d="M168.12,302.26a6.54,6.54,0,0,1-6.48-5.69l-6.56-49.69a6.56,6.56,0,0,1,13-1.71l6.55,49.69a6.56,6.56,0,0,1-5.64,7.35A6.35,6.35,0,0,1,168.12,302.26Z" transform="translate(0)"/>
  <path class="cls-1" d="M176.06,476.94a6.55,6.55,0,0,0-.29,9.26L188.72,500h18l-21.38-22.77A6.56,6.56,0,0,0,176.06,476.94Z" transform="translate(0)"/>
  <path class="cls-1" d="M466.1,477.8a6.55,6.55,0,0,1-6.48-5.69l-6.56-49.69a6.56,6.56,0,0,1,13-1.71l6.55,49.68a6.56,6.56,0,0,1-5.64,7.36A8.46,8.46,0,0,1,466.1,477.8Z" transform="translate(0)"/>
  <path class="cls-1" d="M103.74,388.84a6.55,6.55,0,0,1-4.63-1.91L55.43,343.25A6.55,6.55,0,0,1,64.69,334l43.68,43.68a6.55,6.55,0,0,1-4.63,11.18Z" transform="translate(0)"/>
  <path class="cls-1" d="M133.19,374.94a6.56,6.56,0,0,1-4.35-11.46l38.22-33.9a6.55,6.55,0,1,1,8.7,9.8l-38.22,33.9A6.53,6.53,0,0,1,133.19,374.94Z" transform="translate(0)"/>
  <path class="cls-2" d="M218.56,290.59a6.51,6.51,0,0,1-5.08,2.66l-19.43.55a6.55,6.55,0,1,1-.38-13.1l19.44-.55a6.54,6.54,0,0,1,6.73,6.36A6.41,6.41,0,0,1,218.56,290.59Z" transform="translate(0)"/>
  <path class="cls-2" d="M184.29,460.6a6.54,6.54,0,0,1-5.16-2.5l-12-15.29a6.55,6.55,0,1,1,10.3-8.09l12,15.28a6.55,6.55,0,0,1-1.11,9.2A6.48,6.48,0,0,1,184.29,460.6Z" transform="translate(0)"/>
  <path class="cls-2" d="M42,473.25a6.54,6.54,0,0,1-5.15-2.5l-12-15.29a6.56,6.56,0,0,1,10.31-8.1l12,15.29A6.55,6.55,0,0,1,42,473.25Z" transform="translate(0)"/>
  <path class="cls-2" d="M294.23,234.91a6.54,6.54,0,0,1-5.15-2.5l-12-15.29a6.56,6.56,0,0,1,10.31-8.1l12,15.29a6.55,6.55,0,0,1-5.15,10.6Z" transform="translate(0)"/>
  <path class="cls-2" d="M85,153.34a6.54,6.54,0,0,1-5.16-2.51l-12-15.28a6.55,6.55,0,0,1,10.3-8.1l12,15.29A6.55,6.55,0,0,1,85,153.34Z" transform="translate(0)"/>
  <path class="cls-1" d="M487.21,126.2A6.55,6.55,0,1,0,477,134.46l23,28.28V142Z" transform="translate(0)"/>
  <path class="cls-2" d="M106.53,101.65h-.31l-19.42-.89a6.55,6.55,0,1,1,.6-13.09l19.42.89a6.55,6.55,0,0,1-.29,13.1Z" transform="translate(0)"/>
  <path class="cls-2" d="M69.72,34.72l-.27-.13L52.13,25.76a6.55,6.55,0,0,1,5.95-11.68L75.4,22.92a6.55,6.55,0,0,1-5.68,11.8Z" transform="translate(0)"/>
  <path class="cls-2" d="M35.85,356.87a6.55,6.55,0,0,1-3.53,4.52l-17.46,8.55a6.55,6.55,0,1,1-5.77-11.76l17.47-8.56a6.56,6.56,0,0,1,9.29,7.25Z" transform="translate(0)"/>
  <path class="cls-2" d="M189,100.35a6.54,6.54,0,0,1,10.85-4l21.71,19.34a6.55,6.55,0,1,1-8.71,9.78l-21.72-19.34A6.52,6.52,0,0,1,189,100.35Z" transform="translate(0)"/>
  <path class="cls-2" d="M488,82.17a6.55,6.55,0,1,0-7.78,10.55L500,107.28h0V91Z" transform="translate(0)"/>
  <path class="cls-1" d="M31.83,55.44a5.59,5.59,0,0,0,.12-.82,6.56,6.56,0,0,0-6-7.08L0,45.38V58.53L24.88,60.6A6.55,6.55,0,0,0,31.83,55.44Z" transform="translate(0)"/>
  <path class="cls-1" d="M11.34,434.44a6.62,6.62,0,0,0,.79-.26,6.55,6.55,0,0,0,3.65-8.51L0,386.14v35.34l3.61,9A6.55,6.55,0,0,0,11.34,434.44Z" transform="translate(0)"/>
  <path class="cls-2" d="M13.51,211.77a6.55,6.55,0,0,0-8-4.63L0,208.61v13.57l8.88-2.38A6.57,6.57,0,0,0,13.51,211.77Z" transform="translate(0)"/>
  <path class="cls-1" d="M29.39,300.87A6.55,6.55,0,0,0,23.69,290L0,293v13.2L25.33,303A6.54,6.54,0,0,0,29.39,300.87Z" transform="translate(0)"/>
  <path class="cls-1" d="M20.75,177.89a6.54,6.54,0,0,0,.95-9.21L0,142v20.79l11.53,14.2A6.55,6.55,0,0,0,20.75,177.89Z" transform="translate(0)"/>
  <path class="cls-2" d="M6.51,108a6.63,6.63,0,0,0,2.64-2.12,6.55,6.55,0,0,0-1.39-9.16L0,91v16.28A6.57,6.57,0,0,0,6.51,108Z" transform="translate(0)"/>
  <path class="cls-2" d="M377.45,481.6a6.56,6.56,0,0,0-7.8,5L366.72,500h13.41l2.32-10.6A6.54,6.54,0,0,0,377.45,481.6Z" transform="translate(0)"/>
  <path class="cls-2" d="M103.37,425.49a6.55,6.55,0,0,1-3.28-12.23L121.34,401a6.55,6.55,0,1,1,6.55,11.35l-21.25,12.27A6.58,6.58,0,0,1,103.37,425.49Z" transform="translate(0)"/>
  <path class="cls-2" d="M26,283.56a6.55,6.55,0,0,1-3.28-12.23L44,259.06a6.55,6.55,0,1,1,6.55,11.35L29.29,282.68A6.55,6.55,0,0,1,26,283.56Z" transform="translate(0)"/>
  <path class="cls-2" d="M441.43,192.51a6.55,6.55,0,0,1-3.83-12.06l20.68-13.22a6.55,6.55,0,1,1,7.06,11l-20.68,13.22A6.53,6.53,0,0,1,441.43,192.51Z" transform="translate(0)"/>
  <path class="cls-2" d="M122.63,168.77a6.55,6.55,0,0,1,4.84-11.7l24.33,3.2a6.55,6.55,0,0,1-1.71,13l-24.33-3.2A6.43,6.43,0,0,1,122.63,168.77Z" transform="translate(0)"/>
  <path class="cls-2" d="M390.11,361.06a6.55,6.55,0,0,1-3.28-12.23l21.25-12.27a6.55,6.55,0,0,1,6.55,11.35l-21.25,12.27A6.58,6.58,0,0,1,390.11,361.06Z" transform="translate(0)"/>
  <path class="cls-2" d="M390.08,220.71a6.55,6.55,0,0,1-4.89-10.91l16.33-18.32a6.55,6.55,0,0,1,9.78,8.72L395,218.52A6.53,6.53,0,0,1,390.08,220.71Z" transform="translate(0)"/>
  <path class="cls-2" d="M80.53,242.53a6.56,6.56,0,0,1,2.39-8.87l21.14-12.45a6.55,6.55,0,0,1,6.65,11.29L89.57,245a6.54,6.54,0,0,1-9-2.32A.61.61,0,0,1,80.53,242.53Z" transform="translate(0)"/>
  <path class="cls-2" d="M125.49,476.57a6.56,6.56,0,0,0-2.4,8.95L131.45,500h15.13l-12.14-21A6.55,6.55,0,0,0,125.49,476.57Z" transform="translate(0)"/>
  <path class="cls-2" d="M278.75,69.38a6.55,6.55,0,0,1,.84,12.25l-22.37,10.1a6.55,6.55,0,0,1-5.39-12L274.2,69.69A6.48,6.48,0,0,1,278.75,69.38Z" transform="translate(0)"/>
  <path class="cls-1" d="M345.58,355.6a6.49,6.49,0,0,1-3-.73,6.56,6.56,0,0,1-2.81-8.83l31.67-61.16a6.55,6.55,0,0,1,11.64,6L351.4,352.06A6.54,6.54,0,0,1,345.58,355.6Z" transform="translate(0)"/>
  <path class="cls-1" d="M335.2,241.11a6.48,6.48,0,0,1-3-.73,6.55,6.55,0,0,1-2.81-8.83l31.67-61.16a6.55,6.55,0,1,1,11.63,6L341,237.57A6.57,6.57,0,0,1,335.2,241.11Z" transform="translate(0)"/>
  <path class="cls-1" d="M451.86,82.91a6.53,6.53,0,0,1-.59,4.54l-34.9,66.07a6.55,6.55,0,1,1-11.58-6.12l34.89-66.07a6.56,6.56,0,0,1,12.18,1.58Z" transform="translate(0)"/>
  <path class="cls-1" d="M225.54,413.39a6.55,6.55,0,0,1-3.5-12.1l63.19-39.88a6.55,6.55,0,1,1,7,11.09L229,412.37A6.46,6.46,0,0,1,225.54,413.39Z" transform="translate(0)"/>
  <path class="cls-1" d="M270.2,469.06a6.53,6.53,0,0,1-2.93-.69L219,444.17a6.55,6.55,0,0,1,5.87-11.72l48.3,24.2a6.55,6.55,0,0,1-2.94,12.41Z" transform="translate(0)"/>
  <path class="cls-1" d="M150.06,137.79a6.55,6.55,0,0,1-11-6.57l17.85-51a6.55,6.55,0,0,1,12.37,4.33l-17.85,51A6.63,6.63,0,0,1,150.06,137.79Z" transform="translate(0)"/>
  <path class="cls-1" d="M91.76,479.77a6.56,6.56,0,0,0-8.59-3.48l-49.73,21.1a6.5,6.5,0,0,0-3,2.61H60.84l27.45-11.64A6.56,6.56,0,0,0,91.76,479.77Z" transform="translate(0)"/>
  <path class="cls-1" d="M360.87,422.38a6.5,6.5,0,0,1-4.63-1.92l-43.68-43.68a6.55,6.55,0,0,1,9.26-9.26L365.5,411.2a6.55,6.55,0,0,1-4.63,11.18Z" transform="translate(0)"/>
  <path class="cls-2" d="M287.16,437.13a6.56,6.56,0,0,1-6.55-6.56v-27.3a6.55,6.55,0,0,1,13.1,0v27.3A6.56,6.56,0,0,1,287.16,437.13Z" transform="translate(0)"/>
  <path class="cls-2" d="M428,466.61a6.55,6.55,0,0,1-6.55-6.55v-27.3a6.55,6.55,0,0,1,13.1,0v27.3A6.55,6.55,0,0,1,428,466.61Z" transform="translate(0)"/>
  <path class="cls-2" d="M339.58,287a6.55,6.55,0,0,1-5.16-2.51l-12-15.29a6.55,6.55,0,0,1,10.31-8.09l12,15.29a6.56,6.56,0,0,1-5.15,10.6Z" transform="translate(0)"/>
  <path class="cls-2" d="M318,162.14a6.52,6.52,0,0,1-3.17,4.77l-16.75,9.87a6.55,6.55,0,1,1-6.65-11.29l16.76-9.87a6.54,6.54,0,0,1,9.81,6.52Z" transform="translate(0)"/>
  <path class="cls-2" d="M410.85,287a6.52,6.52,0,0,1-5.15-2.51l-12-15.29a6.55,6.55,0,1,1,10.3-8.09l12,15.29a6.56,6.56,0,0,1-5.15,10.6Z" transform="translate(0)"/>
  <path class="cls-1" d="M245.83,320.56a6.55,6.55,0,0,1-9.45-7.78l21.13-62.63a6.55,6.55,0,1,1,12.42,4.19L248.79,317A6.47,6.47,0,0,1,245.83,320.56Z" transform="translate(0)"/>
  <path class="cls-2" d="M351.59,459.06a6.52,6.52,0,0,1-5.15-2.51l-12-15.29a6.55,6.55,0,1,1,10.31-8.09l12,15.28a6.56,6.56,0,0,1-5.15,10.61Z" transform="translate(0)"/>
  <path class="cls-2" d="M132.23,334.73a6.54,6.54,0,0,1-5.68-3.28L114.28,310.2a6.55,6.55,0,1,1,11.35-6.55L137.9,324.9a6.54,6.54,0,0,1-2.4,9A6.48,6.48,0,0,1,132.23,334.73Z" transform="translate(0)"/>
  <path class="cls-2" d="M48.19,420.71a6.57,6.57,0,0,1-4.69-4.58l-6.61-23.64A6.55,6.55,0,0,1,49.51,389l6.61,23.63a6.55,6.55,0,0,1-7.93,8.12Z" transform="translate(0)"/>
  <path class="cls-2" d="M294,336.67a6.56,6.56,0,0,1-3.87-5.29L287.44,307a6.55,6.55,0,0,1,13-1.41l2.64,24.4a6.54,6.54,0,0,1-9.15,6.7Z" transform="translate(0)"/>
  <path class="cls-2" d="M189.9,412.8h-.34a6.55,6.55,0,0,1-6.21-6.88l1.25-24.51a6.55,6.55,0,1,1,13.09.67l-1.25,24.51A6.56,6.56,0,0,1,189.9,412.8Z" transform="translate(0)"/>
  <path class="cls-2" d="M465.63,363.91h-.34a6.54,6.54,0,0,1-6.21-6.87l1.25-24.51a6.55,6.55,0,1,1,13.09.67l-1.25,24.5A6.56,6.56,0,0,1,465.63,363.91Z" transform="translate(0)"/>
  <path class="cls-2" d="M257.88,481.77a6.57,6.57,0,0,0-8,4.7L246.38,500h13.54l2.66-10.24A6.56,6.56,0,0,0,257.88,481.77Z" transform="translate(0)"/>
  <path class="cls-2" d="M473,16.49a6.54,6.54,0,0,0,9.09-1.84L491.78,0H476.06l-4.91,7.41A6.54,6.54,0,0,0,473,16.49Z" transform="translate(0)"/>
  <path class="cls-1" d="M402.17,5.43l48.39,21.21a6.55,6.55,0,0,0,5.26-12L422.43,0H398.29A6.53,6.53,0,0,0,402.17,5.43Z" transform="translate(0)"/>
  <path class="cls-1" d="M306.43,23.2a6.49,6.49,0,0,0,2.57.52,6.57,6.57,0,0,0,6-4L323.46,0H309.21L303,14.6A6.55,6.55,0,0,0,306.43,23.2Z" transform="translate(0)"/>
  <path class="cls-1" d="M218.66,23.58a5.75,5.75,0,0,0,.67-.55,6.55,6.55,0,0,0,.29-9.26L206.7,0h-18l21.35,22.74A6.55,6.55,0,0,0,218.66,23.58Z" transform="translate(0)"/>
  <path class="cls-2" d="M366.4,16.82a6.55,6.55,0,0,0,10.81-3.44L380.13,0H366.72l-2.31,10.57A6.55,6.55,0,0,0,366.4,16.82Z" transform="translate(0)"/>
  <path class="cls-2" d="M141.05,10.05a6.51,6.51,0,0,0,3.27-.88A6.55,6.55,0,0,0,146.71.22L146.58,0H131.45l3.91,6.78A6.56,6.56,0,0,0,141.05,10.05Z" transform="translate(0)"/>
  <path class="cls-1" d="M30,6a6.55,6.55,0,0,0,6,4,6.49,6.49,0,0,0,2.56-.53L60.84,0H30.42A6.52,6.52,0,0,0,30,6Z" transform="translate(0)"/>
  <path class="cls-2" d="M248.42,18.21l.33.07a6.55,6.55,0,0,0,7.66-4.77L259.92,0H246.38l-2.65,10.22A6.55,6.55,0,0,0,248.42,18.21Z" transform="translate(0)"/>
  <path class="cls-2" d="M357.18,134.6a6.56,6.56,0,0,1-5.68-3.27l-12.27-21.26a6.55,6.55,0,1,1,11.35-6.55l12.27,21.26a6.54,6.54,0,0,1-5.67,9.82Z" transform="translate(0)"/>
  <path class="cls-2" d="M245.46,359.78a6.53,6.53,0,0,1-3.26-.87l-16.84-9.73a6.55,6.55,0,0,1,6.55-11.35l16.84,9.73a6.55,6.55,0,0,1-3.29,12.22Z" transform="translate(0)"/>
  <path class="cls-1" d="M147.58,460.55a6.57,6.57,0,0,1-1.45-.16L79,445.21a6.55,6.55,0,1,1,2.89-12.78L149,447.61a6.55,6.55,0,0,1-1.44,12.94Z" transform="translate(0)"/>
</svg>
