<svg id="Pattern" xmlns="http://www.w3.org/2000/svg" viewBox="0 0 500 500">
  <defs>
    <style>
      .cls-1 {
        fill: #8ed1e3;
      }

      .cls-2 {
        fill: #36353e;
      }
    </style>
  </defs>
  <polygon class="cls-1" points="486.35 102.01 446.68 173.13 404.04 125.38 415.22 62.34 486.35 102.01"/>
  <polygon class="cls-1" points="212.96 429.42 144.63 473.73 161.67 500 221.74 500 228.31 491.57 212.96 429.42"/>
  <polygon class="cls-1" points="157.22 263.85 174.31 322.48 115.27 315.63 84.82 249.98 157.22 263.85"/>
  <polygon class="cls-1" points="78 71.76 32.93 139.77 50.44 60.91 75.11 32.6 78 71.76"/>
  <polygon class="cls-1" points="240.93 267.79 254.85 208.33 302.9 243.3 297.17 315.44 240.93 267.79"/>
  <polygon class="cls-1" points="500 456.91 475.85 439.33 461.93 498.79 463.36 500 500 500 500 456.91"/>
  <polygon class="cls-1" points="130.04 132.22 154.47 99.8 181.12 149.25 154.47 214.98 130.04 132.22"/>
  <polygon class="cls-1" points="353.04 337.22 377.47 304.8 404.12 354.25 377.47 419.98 353.04 337.22"/>
  <polygon class="cls-1" points="77.5 466.38 119.13 362.13 121.72 442.38 110.09 476.95 77.5 466.38"/>
  <polygon class="cls-1" points="457.68 299.35 488.3 314.71 500 292 500 227.28 457.68 299.35"/>
  <polygon class="cls-1" points="370.83 462.07 353.79 494.32 353.05 500 387.91 500 401.3 477.75 370.83 462.07"/>
  <polygon class="cls-1" points="257.57 100.36 302.64 32.34 285.13 111.2 260.46 139.51 257.57 100.36"/>
  <polygon class="cls-2" points="161.62 411.39 153.41 415.91 145.19 420.44 145.38 411.06 145.57 401.69 153.59 406.54 161.62 411.39"/>
  <polygon class="cls-2" points="171.89 419.95 177.17 412.2 182.45 404.45 186.52 412.9 190.59 421.35 181.24 420.65 171.89 419.95"/>
  <polygon class="cls-2" points="293.79 335.61 288.51 343.36 283.23 351.11 279.16 342.66 275.09 334.21 284.44 334.91 293.79 335.61"/>
  <polygon class="cls-2" points="266.06 437.44 264.32 428.23 262.57 419.01 271.42 422.11 280.27 425.2 273.17 431.32 266.06 437.44"/>
  <polygon class="cls-2" points="288.38 493.74 279.16 495.48 283.05 500 294.79 500 297.59 491.99 288.38 493.74"/>
  <polygon class="cls-2" points="138.44 451.96 137.38 442.64 136.32 433.32 144.92 437.07 153.52 440.81 145.98 446.39 138.44 451.96"/>
  <polygon class="cls-2" points="134.41 478.21 134.57 487.59 134.73 496.96 126.53 492.42 118.33 487.87 126.37 483.04 134.41 478.21"/>
  <polygon class="cls-2" points="171.07 355.14 177.75 348.56 184.42 341.97 186.79 351.04 189.16 360.12 180.11 357.63 171.07 355.14"/>
  <polygon class="cls-2" points="226.89 156.95 232.17 149.2 237.45 141.45 241.52 149.9 245.59 158.35 236.24 157.65 226.89 156.95"/>
  <polygon class="cls-2" points="291.79 147.61 286.51 155.36 281.23 163.11 277.16 154.66 273.09 146.21 282.44 146.91 291.79 147.61"/>
  <polygon class="cls-2" points="272.06 203.44 270.32 194.23 268.57 185.01 277.42 188.11 286.27 191.2 279.17 197.32 272.06 203.44"/>
  <polygon class="cls-2" points="130.06 245.44 128.32 236.23 126.57 227.01 135.42 230.11 144.28 233.2 137.17 239.32 130.06 245.44"/>
  <polygon class="cls-2" points="223.16 179.48 232.38 177.74 241.59 175.99 238.5 184.84 235.4 193.69 229.28 186.59 223.16 179.48"/>
  <polygon class="cls-2" points="205.41 157.21 205.57 166.59 205.73 175.96 197.53 171.41 189.33 166.87 197.37 162.04 205.41 157.21"/>
  <polygon class="cls-2" points="229.19 15.26 232.16 24.16 235.12 33.05 225.93 31.18 216.75 29.3 222.97 22.28 229.19 15.26"/>
  <polygon class="cls-2" points="199.07 131.15 205.75 124.56 212.42 117.97 214.79 127.04 217.16 136.12 208.11 133.63 199.07 131.15"/>
  <polygon class="cls-2" points="121.91 335.07 117.78 343.49 113.64 351.91 108.42 344.12 103.2 336.33 112.55 335.7 121.91 335.07"/>
  <polygon class="cls-2" points="160.88 341.64 156.73 350.05 152.58 358.45 147.37 350.65 142.17 342.85 151.53 342.25 160.88 341.64"/>
  <polygon class="cls-2" points="223.62 359.39 215.41 363.91 207.19 368.44 207.38 359.06 207.57 349.69 215.59 354.54 223.62 359.39"/>
  <polygon class="cls-2" points="292.62 403.39 284.41 407.91 276.19 412.44 276.38 403.06 276.57 393.69 284.59 398.54 292.62 403.39"/>
  <polygon class="cls-2" points="235.89 353.95 241.17 346.2 246.45 338.45 250.52 346.9 254.59 355.35 245.24 354.65 235.89 353.95"/>
  <polygon class="cls-2" points="89.89 21.95 95.17 14.2 100.45 6.45 104.52 14.9 108.59 23.35 99.24 22.65 89.89 21.95"/>
  <polygon class="cls-2" points="31.89 257.95 37.17 250.2 42.45 242.45 46.52 250.9 50.59 259.35 41.24 258.65 31.89 257.95"/>
  <polygon class="cls-2" points="232.16 399.48 241.38 397.74 250.59 395.99 247.5 404.84 244.4 413.69 238.28 406.59 232.16 399.48"/>
  <polygon class="cls-2" points="215.41 381.21 215.57 390.59 215.73 399.96 207.53 395.42 199.33 390.87 207.37 386.04 215.41 381.21"/>
  <polygon class="cls-2" points="58.51 488.66 50.17 492.95 41.83 497.24 42.28 487.87 42.73 478.51 50.62 483.58 58.51 488.66"/>
  <polygon class="cls-2" points="236.07 319.14 242.75 312.56 249.42 305.97 251.79 315.04 254.16 324.12 245.11 321.63 236.07 319.14"/>
  <polygon class="cls-2" points="203.91 303.07 199.78 311.49 195.64 319.91 190.42 312.12 185.2 304.33 194.55 303.7 203.91 303.07"/>
  <polygon class="cls-2" points="26.91 307.07 22.77 315.49 18.64 323.91 13.42 316.12 8.2 308.33 17.55 307.7 26.91 307.07"/>
  <polygon class="cls-2" points="220.88 277.64 216.73 286.05 212.58 294.45 207.37 286.65 202.17 278.85 211.53 278.25 220.88 277.64"/>
  <polygon class="cls-2" points="304.62 368.39 296.41 372.91 288.19 377.44 288.38 368.06 288.57 358.69 296.59 363.54 304.62 368.39"/>
  <polygon class="cls-2" points="478.79 365.61 473.51 373.36 468.23 381.11 464.16 372.66 460.09 364.21 469.44 364.91 478.79 365.61"/>
  <polygon class="cls-2" points="446.38 311.61 437.19 309.74 428 307.88 434.21 300.85 440.42 293.83 443.4 302.72 446.38 311.61"/>
  <polygon class="cls-2" points="438.06 394.44 436.32 385.23 434.57 376.01 443.42 379.11 452.27 382.2 445.17 388.32 438.06 394.44"/>
  <polygon class="cls-2" points="413.89 361.95 419.17 354.2 424.45 346.45 428.52 354.9 432.59 363.35 423.24 362.65 413.89 361.95"/>
  <polygon class="cls-2" points="489.89 381.95 499.24 382.65 500 382.71 500 367.11 495.17 374.2 489.89 381.95"/>
  <polygon class="cls-2" points="448.64 346.04 452.46 337.47 456.28 328.9 461.79 336.49 467.3 344.08 457.97 345.06 448.64 346.04"/>
  <polygon class="cls-2" points="476.89 409.95 482.17 402.2 487.45 394.45 491.52 402.9 495.59 411.35 486.24 410.65 476.89 409.95"/>
  <polygon class="cls-2" points="232.16 435.48 241.38 433.74 250.59 431.99 247.5 440.84 244.4 449.69 238.28 442.59 232.16 435.48"/>
  <polygon class="cls-2" points="15.16 344.48 24.38 342.74 33.59 340.99 30.5 349.84 27.4 358.69 21.28 351.59 15.16 344.48"/>
  <polygon class="cls-2" points="241.04 372.7 250.21 370.77 259.39 368.83 256.48 377.75 253.56 386.66 247.3 379.68 241.04 372.7"/>
  <polygon class="cls-2" points="103.79 373.61 98.51 381.36 93.23 389.11 89.16 380.66 85.09 372.21 94.44 372.91 103.79 373.61"/>
  <polygon class="cls-2" points="56.62 384.39 48.41 388.91 40.19 393.44 40.38 384.06 40.57 374.69 48.59 379.54 56.62 384.39"/>
  <polygon class="cls-2" points="88.59 493.54 80.57 488.69 80.38 498.06 80.34 500 93.69 500 96.62 498.39 88.59 493.54"/>
  <polygon class="cls-2" points="53.62 417.39 45.41 421.91 37.19 426.44 37.38 417.06 37.57 407.69 45.59 412.54 53.62 417.39"/>
  <polygon class="cls-2" points="53.89 361.95 59.17 354.2 64.45 346.45 68.52 354.9 72.59 363.35 63.24 362.65 53.89 361.95"/>
  <polygon class="cls-2" points="48.16 441.48 57.38 439.74 66.59 437.99 63.49 446.84 60.4 455.69 54.28 448.59 48.16 441.48"/>
  <polygon class="cls-2" points="180.5 103.54 189.11 107.26 197.72 110.98 190.19 116.58 182.67 122.17 181.58 112.86 180.5 103.54"/>
  <polygon class="cls-2" points="27.41 430.21 27.57 439.59 27.73 448.96 19.53 444.42 11.33 439.87 19.37 435.04 27.41 430.21"/>
  <polygon class="cls-2" points="27.62 403.39 19.41 407.91 11.19 412.44 11.38 403.06 11.57 393.69 19.59 398.54 27.62 403.39"/>
  <polygon class="cls-2" points="68.04 406.7 77.21 404.77 86.39 402.83 83.48 411.75 80.56 420.66 74.3 413.68 68.04 406.7"/>
  <polygon class="cls-2" points="307.16 391.48 316.38 389.74 325.59 387.99 322.5 396.84 319.4 405.69 313.28 398.59 307.16 391.48"/>
  <polygon class="cls-2" points="331.89 400.95 337.17 393.2 342.45 385.45 346.52 393.9 350.59 402.35 341.24 401.65 331.89 400.95"/>
  <polygon class="cls-2" points="339.16 428.48 348.38 426.74 357.59 424.99 354.5 433.84 351.4 442.69 345.28 435.59 339.16 428.48"/>
  <polygon class="cls-2" points="315.41 424.21 315.57 433.59 315.73 442.96 307.53 438.42 299.33 433.87 307.37 429.04 315.41 424.21"/>
  <polygon class="cls-2" points="320.07 360.14 326.75 353.56 333.42 346.97 335.79 356.04 338.16 365.12 329.11 362.63 320.07 360.14"/>
  <polygon class="cls-2" points="421.62 317.39 413.41 321.91 405.19 326.44 405.38 317.06 405.57 307.69 413.59 312.54 421.62 317.39"/>
  <polygon class="cls-2" points="292.41 452.21 292.57 461.59 292.73 470.96 284.53 466.42 276.33 461.87 284.37 457.04 292.41 452.21"/>
  <polygon class="cls-2" points="331.62 484.39 323.41 488.91 315.19 493.44 315.38 484.06 315.57 474.69 323.59 479.54 331.62 484.39"/>
  <polygon class="cls-2" points="327.16 460.48 336.38 458.74 345.59 456.99 342.5 465.84 339.4 474.69 333.28 467.59 327.16 460.48"/>
  <polygon class="cls-2" points="244.04 469.7 253.21 467.77 262.39 465.83 259.48 474.75 256.56 483.66 250.3 476.68 244.04 469.7"/>
  <polygon class="cls-2" points="392.12 428.37 397.52 436.04 402.93 443.7 393.59 444.55 384.25 445.4 388.19 436.88 392.12 428.37"/>
  <polygon class="cls-2" points="437.89 423.95 443.17 416.2 448.45 408.45 452.52 416.9 456.59 425.35 447.24 424.65 437.89 423.95"/>
  <polygon class="cls-2" points="423.16 465.48 432.38 463.74 441.59 461.99 438.5 470.84 435.4 479.69 429.28 472.59 423.16 465.48"/>
  <polygon class="cls-2" points="425.41 488.21 417.37 493.04 409.33 497.87 413.18 500 425.61 500 425.57 497.59 425.41 488.21"/>
  <polygon class="cls-2" points="405.07 406.14 411.75 399.56 418.42 392.97 420.79 402.04 423.16 411.12 414.11 408.63 405.07 406.14"/>
  <polygon class="cls-2" points="443.36 500 445.95 500 445.42 497.97 443.36 500"/>
  <polygon class="cls-2" points="422.44 430.93 428.58 438.01 434.73 445.1 425.52 446.88 416.32 448.66 419.38 439.8 422.44 430.93"/>
  <polygon class="cls-2" points="182.79 224.61 177.51 232.36 172.23 240.11 168.16 231.66 164.09 223.21 173.44 223.91 182.79 224.61"/>
  <polygon class="cls-2" points="176.06 277.44 174.32 268.23 172.57 259.01 181.42 262.11 190.28 265.2 183.17 271.32 176.06 277.44"/>
  <polygon class="cls-2" points="211.62 245.39 203.41 249.91 195.19 254.44 195.38 245.06 195.57 235.69 203.59 240.54 211.62 245.39"/>
  <polygon class="cls-2" points="167.62 381.39 159.41 385.91 151.19 390.44 151.38 381.06 151.57 371.69 159.59 376.54 167.62 381.39"/>
  <polygon class="cls-2" points="216.89 223.95 222.17 216.2 227.45 208.45 231.52 216.9 235.59 225.35 226.24 224.65 216.89 223.95"/>
  <polygon class="cls-2" points="496.41 330.98 487.48 333.85 494.42 340.15 500 345.21 500 329.83 496.41 330.98"/>
  <polygon class="cls-2" points="227.41 312.21 227.57 321.59 227.73 330.96 219.53 326.42 211.33 321.87 219.37 317.04 227.41 312.21"/>
  <polygon class="cls-2" points="56.88 285.64 52.73 294.05 48.58 302.45 43.37 294.65 38.17 286.85 47.53 286.25 56.88 285.64"/>
  <polygon class="cls-2" points="73.91 217.07 69.78 225.49 65.64 233.91 60.42 226.12 55.2 218.33 64.55 217.7 73.91 217.07"/>
  <polygon class="cls-2" points="95.89 191.64 91.73 200.05 87.58 208.45 82.37 200.65 77.17 192.85 86.53 192.25 95.89 191.64"/>
  <polygon class="cls-2" points="20.89 113.64 16.73 122.05 12.58 130.45 7.37 122.65 2.17 114.85 11.53 114.25 20.89 113.64"/>
  <polygon class="cls-2" points="130.79 198.61 125.51 206.36 120.23 214.11 116.16 205.66 112.09 197.21 121.44 197.91 130.79 198.61"/>
  <polygon class="cls-2" points="47.79 198.61 42.51 206.36 37.23 214.11 33.16 205.66 29.09 197.21 38.44 197.91 47.79 198.61"/>
  <polygon class="cls-2" points="15.06 187.44 13.32 178.23 11.57 169.01 20.42 172.11 29.27 175.2 22.17 181.32 15.06 187.44"/>
  <polygon class="cls-2" points="88.62 173.39 80.41 177.91 72.19 182.44 72.38 173.06 72.57 163.69 80.59 168.54 88.62 173.39"/>
  <polygon class="cls-2" points="491.57 140.69 491.38 150.06 491.19 159.44 499.41 154.91 500 154.59 500 145.78 499.59 145.54 491.57 140.69"/>
  <polygon class="cls-2" points="39.89 170.95 45.17 163.2 50.45 155.45 54.52 163.9 58.59 172.35 49.24 171.65 39.89 170.95"/>
  <polygon class="cls-2" points="98.16 170.48 107.38 168.74 116.59 166.99 113.5 175.84 110.4 184.69 104.28 177.59 98.16 170.48"/>
  <polygon class="cls-2" points="63.88 317.64 59.73 326.05 55.58 334.45 50.37 326.65 45.17 318.85 54.53 318.25 63.88 317.64"/>
  <polygon class="cls-2" points="58.89 271.95 64.17 264.2 69.45 256.45 73.52 264.9 77.59 273.35 68.24 272.65 58.89 271.95"/>
  <polygon class="cls-2" points="73.16 306.48 82.38 304.74 91.59 302.99 88.5 311.84 85.4 320.69 79.28 313.59 73.16 306.48"/>
  <polygon class="cls-2" points="103.41 222.21 103.57 231.59 103.73 240.96 95.53 236.41 87.33 231.87 95.37 227.04 103.41 222.21"/>
  <polygon class="cls-2" points="186.07 207.15 192.75 200.56 199.42 193.97 201.79 203.04 204.16 212.12 195.11 209.63 186.07 207.15"/>
  <polygon class="cls-2" points="222.07 111.14 228.75 104.56 235.42 97.97 237.79 107.04 240.16 116.12 231.11 113.63 222.07 111.14"/>
  <polygon class="cls-2" points="324.91 325.07 320.77 333.49 316.64 341.91 311.42 334.12 306.2 326.33 315.55 325.7 324.91 325.07"/>
  <polygon class="cls-2" points="339.3 193.96 348.49 195.82 357.68 197.68 351.48 204.71 345.27 211.74 342.28 202.85 339.3 193.96"/>
  <polygon class="cls-2" points="471.3 190.96 480.49 192.82 489.68 194.68 483.48 201.71 477.27 208.74 474.28 199.85 471.3 190.96"/>
  <polygon class="cls-2" points="438.3 252.96 447.49 254.82 456.68 256.68 450.48 263.71 444.27 270.74 441.28 261.85 438.3 252.96"/>
  <polygon class="cls-2" points="374.3 42.96 383.49 44.82 392.68 46.68 386.48 53.71 380.27 60.74 377.28 51.85 374.3 42.96"/>
  <polygon class="cls-2" points="382.79 250.61 377.51 258.36 372.23 266.11 368.16 257.66 364.09 249.21 373.44 249.91 382.79 250.61"/>
  <polygon class="cls-2" points="359.06 298.44 357.32 289.23 355.57 280.01 364.42 283.11 373.27 286.2 366.17 292.32 359.06 298.44"/>
  <polygon class="cls-2" points="464.06 75.44 462.32 66.23 460.57 57.02 469.42 60.11 478.27 63.2 471.17 69.32 464.06 75.44"/>
  <polygon class="cls-2" points="318.16 272.48 327.38 270.74 336.59 268.99 333.5 277.84 330.4 286.69 324.28 279.59 318.16 272.48"/>
  <polygon class="cls-2" points="331.41 232.21 331.57 241.59 331.73 250.96 323.53 246.41 315.33 241.87 323.37 237.04 331.41 232.21"/>
  <polygon class="cls-2" points="300.07 213.15 306.75 206.56 313.42 199.97 315.79 209.04 318.16 218.12 309.11 215.63 300.07 213.15"/>
  <polygon class="cls-2" points="125.05 29.43 123.31 20.21 121.58 11 130.43 14.11 139.28 17.22 132.16 23.32 125.05 29.43"/>
  <polygon class="cls-2" points="145.75 72.06 145.34 62.69 144.93 53.32 153.25 57.65 161.56 61.98 153.65 67.02 145.75 72.06"/>
  <polygon class="cls-2" points="425.06 52.44 423.32 43.23 421.57 34.02 430.42 37.11 439.27 40.2 432.17 46.32 425.06 52.44"/>
  <polygon class="cls-2" points="390.16 16.48 399.38 14.74 408.59 12.99 405.5 21.84 402.4 30.7 396.28 23.59 390.16 16.48"/>
  <polygon class="cls-2" points="495.38 64.74 486.16 66.48 492.28 73.59 498.4 80.69 500 76.12 500 63.86 495.38 64.74"/>
  <polygon class="cls-1" points="0 456.91 0 500 21.86 500 23.9 474.3 0 456.91"/>
  <polygon class="cls-1" points="221.74 0 161.67 0 188.94 42.06 221.74 0"/>
  <polygon class="cls-1" points="463.36 0 500 31.05 500 0 463.36 0"/>
  <polygon class="cls-1" points="387.91 0 353.05 0 343.45 73.94 387.91 0"/>
  <polygon class="cls-2" points="291.4 9.7 294.5 0.84 294.79 0 283.05 0 285.28 2.59 291.4 9.7"/>
  <polygon class="cls-2" points="88.41 2.91 93.69 0 80.34 0 80.19 7.44 88.41 2.91"/>
  <polygon class="cls-2" points="425.73 6.96 425.61 0 413.18 0 417.53 2.42 425.73 6.96"/>
  <polygon class="cls-2" points="432.07 11.14 441.11 13.63 450.16 16.12 447.79 7.04 445.95 0 443.36 0 438.75 4.56 432.07 11.14"/>
  <polygon class="cls-1" points="21.86 0 0 0 0 31.05 18.17 46.44 21.86 0"/>
  <polygon class="cls-1" points="14.51 202.56 0 227.28 0 292 5 282.28 14.51 202.56"/>
  <polygon class="cls-2" points="4.52 374.9 0.45 366.45 0 367.11 0 382.71 8.59 383.35 4.52 374.9"/>
  <polygon class="cls-2" points="3.35 337.28 5.34 328.12 0 329.83 0 345.21 1.37 346.45 3.35 337.28"/>
  <polygon class="cls-2" points="0 145.78 0 154.59 7.62 150.39 0 145.78"/>
  <polygon class="cls-2" points="4.59 62.99 0 63.86 0 76.12 1.5 71.84 4.59 62.99"/>
  <polygon class="cls-2" points="454.07 37.15 460.75 30.56 467.42 23.97 469.79 33.04 472.16 42.12 463.11 39.63 454.07 37.15"/>
  <polygon class="cls-2" points="431.14 217.62 438.7 223.17 446.25 228.72 437.67 232.49 429.08 236.26 430.11 226.94 431.14 217.62"/>
  <polygon class="cls-2" points="480.41 166.21 480.57 175.59 480.73 184.96 472.53 180.41 464.33 175.87 472.37 171.04 480.41 166.21"/>
  <polygon class="cls-2" points="428.07 198.15 434.75 191.56 441.42 184.97 443.79 194.04 446.16 203.12 437.11 200.63 428.07 198.15"/>
  <polygon class="cls-2" points="421.62 244.39 413.41 248.91 405.19 253.44 405.38 244.06 405.57 234.69 413.59 239.54 421.62 244.39"/>
  <polygon class="cls-2" points="377.62 224.39 369.41 228.91 361.19 233.44 361.38 224.06 361.57 214.69 369.59 219.54 377.62 224.39"/>
  <polygon class="cls-2" points="414.41 267.21 414.57 276.59 414.73 285.96 406.53 281.42 398.33 276.87 406.37 272.04 414.41 267.21"/>
  <polygon class="cls-2" points="382.07 212.15 388.75 205.56 395.42 198.97 397.79 208.04 400.16 217.12 391.11 214.63 382.07 212.15"/>
  <polygon class="cls-2" points="362.07 184.15 368.75 177.56 375.42 170.97 377.79 180.04 380.16 189.12 371.11 186.63 362.07 184.15"/>
  <polygon class="cls-2" points="422.91 174.07 418.77 182.49 414.64 190.91 409.42 183.12 404.2 175.33 413.55 174.7 422.91 174.07"/>
  <polygon class="cls-2" points="311.59 86.63 320.59 83.99 329.58 81.34 327.38 90.45 325.17 99.57 318.38 93.1 311.59 86.63"/>
  <polygon class="cls-2" points="318.3 16.96 327.49 18.82 336.68 20.68 330.48 27.71 324.27 34.74 321.28 25.85 318.3 16.96"/>
  <polygon class="cls-2" points="329.86 59.72 321.51 64.01 313.17 68.29 313.63 58.93 314.09 49.56 321.97 54.64 329.86 59.72"/>
  <polygon class="cls-2" points="342.06 172.44 340.32 163.23 338.57 154.01 347.42 157.11 356.27 160.2 349.17 166.32 342.06 172.44"/>
  <polygon class="cls-2" points="464.06 228.44 462.32 219.23 460.57 210.01 469.42 213.11 478.27 216.2 471.17 222.32 464.06 228.44"/>
  <polygon class="cls-2" points="264.3 23.96 273.49 25.82 282.68 27.68 276.48 34.71 270.27 41.74 267.28 32.85 264.3 23.96"/>
  <polygon class="cls-2" points="254.06 20.44 252.32 11.23 250.57 2.02 259.42 5.11 268.27 8.2 261.17 14.32 254.06 20.44"/>
  <polygon class="cls-2" points="302.16 160.48 311.38 158.74 320.59 156.99 317.5 165.84 314.4 174.69 308.28 167.59 302.16 160.48"/>
  <polygon class="cls-2" points="35.67 46.87 34.79 37.53 33.92 28.2 42.44 32.11 50.97 36.02 43.32 41.45 35.67 46.87"/>
  <polygon class="cls-2" points="56.34 24.6 54.21 14.74 52.07 4.89 62.1 7.87 72.14 10.86 64.24 17.73 56.34 24.6"/>
  <polygon class="cls-2" points="11.16 79.48 20.44 77.72 29.72 75.97 26.59 84.82 23.46 93.68 17.31 86.58 11.16 79.48"/>
  <polygon class="cls-2" points="100.79 87.61 95.51 95.36 90.23 103.11 86.16 94.66 82.09 86.21 91.44 86.91 100.79 87.61"/>
  <polygon class="cls-2" points="66.06 131.44 64.32 122.23 62.57 113.02 71.42 116.11 80.28 119.2 73.17 125.32 66.06 131.44"/>
  <polygon class="cls-2" points="68.07 145.15 74.75 138.56 81.42 131.97 83.79 141.04 86.16 150.12 77.11 147.63 68.07 145.15"/>
  <polygon class="cls-2" points="116.17 126.51 115.55 135.87 114.94 145.23 107.14 140.01 99.35 134.8 107.76 130.66 116.17 126.51"/>
  <polygon class="cls-2" points="108.16 94.48 117.38 92.74 126.59 90.99 123.5 99.84 120.4 108.69 114.28 101.59 108.16 94.48"/>
  <polygon class="cls-2" points="382.62 107.39 374.41 111.91 366.19 116.44 366.38 107.06 366.57 97.69 374.59 102.54 382.62 107.39"/>
  <polygon class="cls-2" points="320.62 118.39 312.41 122.91 304.19 127.44 304.38 118.06 304.57 108.69 312.59 113.54 320.62 118.39"/>
  <polygon class="cls-2" points="389.41 135.21 389.57 144.59 389.73 153.96 381.53 149.41 373.33 144.87 381.37 140.04 389.41 135.21"/>
  <polygon class="cls-2" points="116.06 75.44 114.32 66.23 112.57 57.02 121.42 60.11 130.28 63.2 123.17 69.32 116.06 75.44"/>
  <polygon class="cls-2" points="92.19 37.23 100.56 41.47 108.92 45.7 101.07 50.83 93.22 55.96 92.7 46.6 92.19 37.23"/>
  <polygon class="cls-2" points="210.3 76.96 219.49 78.82 228.68 80.68 222.48 87.71 216.27 94.74 213.28 85.85 210.3 76.96"/>
  <polygon class="cls-2" points="166.07 89.14 172.75 82.56 179.42 75.97 181.79 85.04 184.16 94.12 175.11 91.63 166.07 89.14"/>
  <polygon class="cls-2" points="204.06 68.44 202.32 59.23 200.57 50.02 209.42 53.11 218.28 56.2 211.17 62.32 204.06 68.44"/>
  <polygon class="cls-2" points="154.11 46.01 144.81 44.77 135.52 43.52 141.24 36.09 146.97 28.67 150.54 37.34 154.11 46.01"/>
  <polygon class="cls-2" points="252.41 43.21 252.57 52.59 252.73 61.96 244.53 57.41 236.33 52.87 244.37 48.04 252.41 43.21"/>
  <polygon class="cls-2" points="341.07 137.15 347.75 130.56 354.42 123.97 356.79 133.04 359.16 142.12 350.11 139.63 341.07 137.15"/>
  <polygon class="cls-2" points="393.91 71.08 389.77 79.49 385.64 87.91 380.42 80.12 375.2 72.33 384.55 71.7 393.91 71.08"/>
  <polygon class="cls-2" points="346.04 312.92 336.79 314.46 327.54 316 330.83 307.22 334.11 298.44 340.07 305.68 346.04 312.92"/>
</svg>
